<?xml version="1.0"?>
<svg xmlns="http://www.w3.org/2000/svg" height="512px" viewBox="0 0 512 512" width="512px" class=""><g><path d="m17.742188 252.292969c1.957031-128.71875 105.832031-232.59375 234.550781-234.550781h7.414062c128.71875 1.957031 232.59375 105.832031 234.550781 234.550781v7.414062c-1.957031 128.71875-105.832031 232.59375-234.550781 234.550781h-7.414062c-128.71875-1.957031-232.59375-105.832031-234.550781-234.550781zm0 0" fill="#ffffff" class="" /><path d="m8.828125 252.152344c2.03125-133.535156 109.789063-241.292969 243.324219-243.324219h7.695312c133.535156 2.03125 241.292969 109.789063 243.324219 243.324219v7.695312c-2.03125 133.535156-109.789063 241.292969-243.324219 243.324219h-7.695312c-133.535156-2.03125-241.292969-109.789063-243.324219-243.324219zm0 0" fill="#0288d1" class="active-path"/><path d="m22.070312 252.363281c1.917969-126.386719 103.90625-228.375 230.292969-230.292969h7.273438c126.386719 1.917969 228.375 103.90625 230.292969 230.292969v7.273438c-1.917969 126.386719-103.90625 228.375-230.292969 230.292969h-7.273438c-126.386719-1.917969-228.375-103.90625-230.292969-230.292969zm0 0" fill="#455a64"/><path d="m244.964844 53.320312c-103.453125 5.554688-186.089844 88.191407-191.644532 191.644532v22.070312c5.554688 103.453125 88.191407 186.089844 191.644532 191.644532h22.070312c103.453125-5.554688 186.089844-88.191407 191.644532-191.644532v-22.070312c-5.554688-103.453125-88.191407-186.089844-191.644532-191.644532zm0 0" fill="#eeeeee"/><path d="m245.664062 66.207031c-96.871093 5.207031-174.25 82.585938-179.457031 179.457031v20.671876c5.207031 96.871093 82.585938 174.25 179.457031 179.457031h20.671876c96.871093-5.207031 174.25-82.585938 179.457031-179.457031v-20.671876c-5.207031-96.871093-82.585938-174.25-179.457031-179.457031zm0 0" fill="#ffffff"/><path d="m256 0v256h-256l182.554688-37.78125-32.664063-68.328125 68.328125 32.664063zm0 0" /><g fill="transparent"><path d="m114.757812 194.207031c-3.585937.019531-6.828124-2.128906-8.203124-5.441406s-.609376-7.128906 1.9375-9.652344c2.132812-2.046875 5.125-2.933593 8.03125-2.386719.554687.097657 1.089843.277344 1.589843.53125.5625.191407 1.097657.460938 1.589844.792969l1.324219 1.0625c3.414062 3.480469 3.414062 9.050781 0 12.535157l-1.324219 1.058593c-.492187.332031-1.027344.601563-1.589844.792969-.5.253906-1.035156.433594-1.589843.53125-.582032.101562-1.171876.160156-1.765626.175781zm0 0" fill="transparent"/><path d="m185.378906 123.585938c-3.585937.019531-6.828125-2.128907-8.203125-5.441407s-.609375-7.128906 1.9375-9.652343c2.132813-2.046876 5.125-2.933594 8.03125-2.382813.554688.09375 1.089844.273437 1.589844.527344.5625.195312 1.097656.460937 1.589844.796875l1.324219 1.058594c3.414062 3.480468 3.414062 9.054687 0 12.535156l-1.324219 1.058594c-.492188.332031-1.027344.601562-1.589844.792968-.5.257813-1.035156.433594-1.589844.53125-.582031.101563-1.171875.160156-1.765625.175782zm0 0" fill="transparent"/><path d="m397.242188 194.207031c3.585937.019531 6.828124-2.128906 8.203124-5.441406s.609376-7.128906-1.9375-9.652344c-2.132812-2.046875-5.125-2.933593-8.03125-2.386719-.554687.097657-1.089843.277344-1.589843.53125-.5625.191407-1.097657.460938-1.589844.792969l-1.324219 1.0625c-3.414062 3.480469-3.414062 9.050781 0 12.535157l1.324219 1.058593c.492187.332031 1.027344.601563 1.589844.792969.5.253906 1.035156.433594 1.589843.53125.582032.101562 1.171876.160156 1.765626.175781zm0 0" fill="transparent"/><path d="m326.621094 123.585938c3.585937.019531 6.828125-2.128907 8.203125-5.441407s.609375-7.128906-1.9375-9.652343c-2.132813-2.046876-5.125-2.933594-8.03125-2.382813-.554688.09375-1.089844.273437-1.589844.527344-.5625.195312-1.097656.460937-1.589844.796875l-1.324219 1.058594c-3.414062 3.480468-3.414062 9.054687 0 12.535156l1.324219 1.058594c.492188.332031 1.027344.601562 1.589844.792968.5.257813 1.035156.433594 1.589844.53125.582031.101563 1.171875.160156 1.765625.175782zm0 0" fill="transparent"/><path d="m114.757812 317.792969c-3.585937-.019531-6.828124 2.128906-8.203124 5.441406s-.609376 7.128906 1.9375 9.652344c2.132812 2.046875 5.125 2.933593 8.03125 2.386719.554687-.097657 1.089843-.277344 1.589843-.53125.5625-.191407 1.097657-.460938 1.589844-.792969l1.324219-1.0625c3.414062-3.480469 3.414062-9.050781 0-12.535157l-1.324219-1.058593c-.492187-.332031-1.027344-.601563-1.589844-.792969-.5-.253906-1.035156-.433594-1.589843-.53125-.582032-.101562-1.171876-.160156-1.765626-.175781zm0 0" fill="transparent"/><path d="m185.378906 388.414062c-3.585937-.019531-6.828125 2.128907-8.203125 5.441407s-.609375 7.128906 1.9375 9.652343c2.132813 2.046876 5.125 2.933594 8.03125 2.382813.554688-.09375 1.089844-.273437 1.589844-.527344.5625-.195312 1.097656-.460937 1.589844-.796875l1.324219-1.058594c3.414062-3.480468 3.414062-9.054687 0-12.535156l-1.324219-1.058594c-.492188-.332031-1.027344-.601562-1.589844-.792968-.5-.257813-1.035156-.433594-1.589844-.53125-.582031-.101563-1.171875-.160156-1.765625-.175782zm0 0" fill="transparent"/><path d="m397.242188 317.792969c3.585937-.019531 6.828124 2.128906 8.203124 5.441406s.609376 7.128906-1.9375 9.652344c-2.132812 2.046875-5.125 2.933593-8.03125 2.386719-.554687-.097657-1.089843-.277344-1.589843-.53125-.5625-.191407-1.097657-.460938-1.589844-.792969l-1.324219-1.0625c-3.414062-3.480469-3.414062-9.050781 0-12.535157l1.324219-1.058593c.492187-.332031 1.027344-.601563 1.589844-.792969.5-.253906 1.035156-.433594 1.589843-.53125.582032-.101562 1.171876-.160156 1.765626-.175781zm0 0" fill="transparent"/><path d="m326.621094 388.414062c3.585937-.019531 6.828125 2.128907 8.203125 5.441407s.609375 7.128906-1.9375 9.652343c-2.132813 2.046876-5.125 2.933594-8.03125 2.382813-.554688-.09375-1.089844-.273437-1.589844-.527344-.5625-.195312-1.097656-.460937-1.589844-.796875l-1.324219-1.058594c-3.414062-3.480468-3.414062-9.054687 0-12.535156l1.324219-1.058594c.492188-.332031 1.027344-.601562 1.589844-.792968.5-.257813 1.035156-.433594 1.589844-.53125.582031-.101563 1.171875-.160156 1.765625-.175782zm0 0" fill="transparent"/></g><path d="m512 256-182.554688-37.78125 32.664063-68.328125-68.328125 32.664063-37.78125-182.554688-37.78125 182.554688-68.328125-32.664063 32.664063 68.328125-182.554688 37.78125 182.554688 37.78125-32.664063 68.328125 68.328125-32.664063 37.78125 182.554688 37.78125-182.554688 68.328125 32.664063-32.664063-68.328125zm0 0" fill="#a5d6a7"/><path d="m256 256v256l-37.78125-182.554688-68.328125 32.664063 32.664063-68.328125-182.554688-37.78125zm0 0" fill="#81c784"/><path d="m512 256h-256v-256l37.78125 182.554688 68.328125-32.664063-32.664063 68.328125zm0 0" fill="#81c784"/><path d="m256 0v256h-256l182.554688-37.78125-32.664063-68.328125 68.328125 32.664063zm0 0" fill="#a5d6a7"/><path d="m300.136719 256c0 24.375-19.761719 44.136719-44.136719 44.136719s-44.136719-19.761719-44.136719-44.136719 19.761719-44.136719 44.136719-44.136719 44.136719 19.761719 44.136719 44.136719zm0 0" fill="#ffffff"/><path d="m256 264.828125c-1.152344-.015625-2.292969-.253906-3.355469-.707031-1.070312-.449219-2.054687-1.074219-2.914062-1.851563-1.625-1.683593-2.539063-3.929687-2.558594-6.269531.015625-1.152344.253906-2.292969.707031-3.355469.800782-2.214843 2.550782-3.964843 4.765625-4.765625 1.609375-.707031 3.402344-.890625 5.121094-.53125.554687.097656 1.089844.277344 1.589844.53125.5625.191406 1.097656.460938 1.589843.792969.460938.328125.902344.679687 1.324219 1.058594.777344.859375 1.402344 1.84375 1.851563 2.914062.453125 1.0625.691406 2.203125.707031 3.355469-.015625.59375-.074219 1.183594-.175781 1.765625-.097656.554687-.277344 1.089844-.53125 1.589844-.191406.5625-.460938 1.097656-.792969 1.589843-.609375.960938-1.421875 1.773438-2.382813 2.382813-.492187.332031-1.027343.601563-1.589843.792969-.5.253906-1.035157.433594-1.589844.53125-.582031.101562-1.171875.160156-1.765625.175781zm0 0" fill="#ffffff"/></g> </svg>
